<?xml version="1.0" encoding="iso-8859-1"?>
<!-- Generator: Adobe Illustrator 19.0.0, SVG Export Plug-In . SVG Version: 6.00 Build 0)  -->
<svg version="1.1" id="Capa_1" xmlns="http://www.w3.org/2000/svg" xmlns:xlink="http://www.w3.org/1999/xlink" x="0px" y="0px"
	 viewBox="0 0 512 512" style="enable-background:new 0 0 512 512;" xml:space="preserve">
<g>
	<g>
		<path d="M495.368,178.664c-15.109-21.1-39.615-32.72-69.003-32.72c-7.131,0-14.536,0.701-22.127,2.059
			c3.231-1.872,6.473-3.681,9.724-5.413c7.604-4.051,15.973-5.748,23.705-4.785c7.456,0.924,15.112-1.816,20.282-7.272
			c4.553-4.805,6.864-11.101,6.508-17.728c-0.633-11.756-9.942-21.416-21.654-22.468c-7.598-0.688-15.099,2.315-20.106,8.02
			c-4.607,5.248-10.321,9.267-16.525,11.623c-14.784,5.614-29.195,12.265-43.134,19.876c3.951-32.319-1.403-57.658-15.998-75.456
			c-17.363-21.173-47.992-31.908-91.038-31.908c-35.554,0-61.71,6.918-79.963,21.149c-3.267,2.546-3.85,7.259-1.303,10.526
			c2.546,3.267,7.259,3.852,10.526,1.303c15.301-11.93,39.101-17.978,70.74-17.978c38.336,0,65.063,8.889,79.438,26.418
			c13.489,16.449,17.166,41.879,10.943,75.624c-0.129,0.08-0.256,0.163-0.385,0.243c-26.595,16.552-50.983,36.657-72.818,59.093
			c-0.054,0.056-0.11,0.109-0.165,0.165c-0.024-0.017-0.05-0.031-0.074-0.049c-2.863-2.06-6.058-3.569-9.44-4.471v-84.899
			c0-4.142-3.358-7.5-7.5-7.5c-4.142,0-7.5,3.358-7.5,7.5v84.899c-3.69,0.984-7.162,2.688-10.218,5.045
			c-0.017,0.013-0.034,0.027-0.051,0.041c-0.665,0.515-1.312,1.057-1.935,1.632c-4.993,4.612-12.068,3.322-18.064,5.587
			c-0.119,0.045-0.242,0.078-0.36,0.125c-0.076-0.067-0.153-0.131-0.23-0.198c-6.06-5.304-12.303-10.409-18.721-15.274
			c-8.053-6.113-16.143-11.681-24.219-16.622c-13.766-43.093-15.721-76.206-5.808-98.448c1.686-3.784-0.014-8.217-3.797-9.904
			c-3.784-1.685-8.217,0.015-9.904,3.797c-10.364,23.255-10.125,54.189,0.792,94.204c-24.433-12.164-48.32-18.563-70.346-18.563
			c-29.394,0-53.901,11.62-69.01,32.719c-19.864,27.741-22.006,68.879-6.031,115.836c10.287,30.236,26.999,49.671,49.751,57.928
			c-6.125,12.392-9.226,25.209-9.129,38.111c0.332,43.928,37.433,79.422,99.246,94.947c10.646,2.674,20.762,4.03,30.069,4.03
			c22.479,0,41.041-7.758,55.17-23.059c8.991-9.736,15.542-21.924,20.282-35.277c13.636,38.296,39.352,58.335,75.477,58.336
			c9.305,0,19.421-1.356,30.067-4.03c61.813-15.525,98.914-51.02,99.246-94.947c0.097-12.902-3.003-25.72-9.129-38.111
			c22.755-8.257,39.468-27.691,49.755-57.927C517.377,247.542,515.234,206.406,495.368,178.664z M275.498,218.226
			c23.439-25.443,50.279-48.403,79.907-66.619c17.855-10.963,36.639-20.219,56.091-27.605c8.485-3.222,16.256-8.668,22.472-15.75
			c5.118-5.829,15.092-2.385,15.509,5.357c0.293,5.438-4.551,9.981-9.961,9.31c-10.781-1.339-22.292,0.937-32.608,6.432
			c-20.306,10.817-40.254,24.244-59.29,39.905c-20.129,16.561-37.86,35.91-53.646,56.614
			c-10.069,13.206-19.792,26.933-27.532,41.654c-2.893,5.504-9.738,8.469-15.601,6.026c-7.044-2.934-9.056-11.903-5.293-18.203
			C253.702,241.686,264.765,229.876,275.498,218.226z M24.802,289.661c-14.375-42.251-12.945-78.572,4.025-102.272
			c12.392-17.305,32.038-26.452,56.814-26.452c24.403,0,51.62,8.905,79.46,25.637c11.314,6.8,22.116,14.484,32.37,22.795
			c2.646,2.144,5.457,4.482,8.112,6.769c-0.115-0.086-2.6,4.11-2.798,4.474c-1.42,2.61-2.375,5.468-2.896,8.394
			c-0.509,2.858-0.354,5.887-1.477,8.608c-25.702-6.213-65.147-10.326-114.974,1.257c-4.035,0.938-6.545,4.969-5.607,9.003
			s4.966,6.545,9.003,5.607c43.948-10.218,79.135-7.539,103.166-2.401c-1.594,4.182-2.221,8.699-1.8,13.173
			c-1.34,0.386-2.675,0.787-4.01,1.188c-26.993,8.117-53.804,19.557-77.117,35.818c-14.909,10.4-28.591,22.927-38.932,37.959
			C48.264,333.128,34.055,316.86,24.802,289.661z M224.689,456.273c-11.331,12.271-25.773,18.236-44.15,18.236
			c-8.076,0-16.963-1.204-26.415-3.578C99.36,457.176,66.5,427.078,66.223,390.418c-0.226-29.887,20.722-55.164,43.32-72.412
			c20.846-15.911,48.149-29.059,80.154-38.56c0.026-0.008,2.528-0.74,3.756-1.089c0.705,0.988,1.476,1.939,2.299,2.83
			c2.262,2.45,3.582,5.634,3.714,8.967c0.137,3.428,0.885,6.708,2.128,9.741c-18.193,18.065-41.732,48.249-58.281,94.218
			c-1.403,3.897,0.619,8.194,4.517,9.597c3.842,1.383,8.211-0.667,9.597-4.516c15.2-42.222,36.511-70.2,53.338-87.256
			c4.632,3.595,10.36,5.833,16.566,6.081c3.333,0.133,6.517,1.452,8.968,3.715c4.209,3.887,9.569,6.476,15.23,7.353
			C253.511,361.342,253.309,425.281,224.689,456.273z M246.475,310.713c-5.067-4.679-11.653-7.407-18.546-7.682
			c-7.266-0.29-13.185-6.208-13.474-13.474c-0.258-6.462-2.672-12.654-6.827-17.577c-4.912-5.82-6.402-14.016-0.855-20.024
			c4.679-5.068,7.407-11.654,7.682-18.546c0.285-7.117,6.358-13.188,13.474-13.474c6.892-0.275,13.478-3.003,18.546-7.682
			c4.033-3.725,11.215-5.322,15.985-2.07c-0.208,0.325-0.465,0.577-0.724,0.863c-6.41,7.072-12.771,14.233-18.676,21.735
			c-3.742,4.754-7.288,9.678-10.391,14.875c-4.243,7.106-5.194,15.675-2.607,23.508c2.156,6.528,6.506,11.758,12.395,14.977
			c13.234,7.235,30.308,1.591,37.262-11.639c5.487-10.439,12.161-20.204,17.965-28.378c0.674-0.949,1.354-1.88,2.037-2.805
			c0.317,0.769,0.668,1.524,1.05,2.263c0.01,0.02,0.02,0.041,0.03,0.061c1.708,3.223,4.492,5.699,6.278,8.862
			c2.962,5.244,2.249,12.069-1.847,16.505c-4.648,5.034-7.41,11.699-7.682,18.545c-0.29,7.266-6.208,13.185-13.474,13.475
			c-6.761,0.269-13.503,3.025-18.546,7.682C260.229,315.608,251.775,315.609,246.475,310.713z M357.881,470.931
			c-26.712,6.709-55.459,4.604-73.672-18.291c-9.693-12.185-16.619-29.509-20.593-51.502c0.636-3.788,1.165-7.593,1.617-11.394
			c0.015-0.123,0.028-0.245,0.042-0.367c2.24-19.031,2.481-38.277,1.45-57.399c-0.018-0.34-0.411-4.436-0.261-4.486
			c3.405-1.136,6.618-3.336,9.243-5.759c2.45-2.262,5.635-3.582,8.968-3.714c6.206-0.248,11.934-2.485,16.565-6.081
			c16.827,17.057,38.139,45.034,53.338,87.254c3.251,9.03,17.408,4.073,14.114-5.079c-16.549-45.968-40.088-76.152-58.282-94.219
			c1.243-3.033,1.992-6.313,2.129-9.741c0.132-3.314,1.464-6.53,3.714-8.967c0.822-0.89,1.595-1.843,2.299-2.83
			c0.172,0.049,2.659,0.763,3.724,1.08c41.939,12.446,87.976,33.634,111.791,72.337c7.177,11.673,11.819,24.815,11.715,38.645
			C445.504,427.078,412.644,457.176,357.881,470.931z M487.205,289.661c-9.256,27.199-23.465,43.467-43.343,49.559
			c-5.369-7.805-11.977-15.381-19.792-22.632c-19.275-17.883-42.737-31.033-66.988-40.888c-10.665-4.334-21.584-8.067-32.644-11.258
			c-0.213-0.062-0.421-0.126-0.634-0.188c0.421-4.475-0.205-8.992-1.799-13.173c24.031-5.137,59.216-7.817,103.166,2.401
			c4.034,0.936,8.065-1.572,9.003-5.607c0.938-4.034-1.572-8.065-5.607-9.003c-49.827-11.585-89.271-7.47-114.973-1.257
			c-0.471,0.114-1.693-9.771-1.7-9.802c-0.03-0.138-0.055-0.278-0.087-0.417c0.407-0.509,0.818-1.009,1.227-1.514
			c6.868-8.482,14.097-16.684,21.75-24.467c7.094-7.237,14.541-14.136,22.367-20.576c0.015-0.012,0.03-0.024,0.045-0.036
			l0.251-0.201c24.187-12.863,48.006-19.659,68.919-19.659c24.771,0,44.416,9.147,56.808,26.453
			C500.146,211.097,501.577,247.416,487.205,289.661z"/>
	</g>
</g>
<g>
</g>
<g>
</g>
<g>
</g>
<g>
</g>
<g>
</g>
<g>
</g>
<g>
</g>
<g>
</g>
<g>
</g>
<g>
</g>
<g>
</g>
<g>
</g>
<g>
</g>
<g>
</g>
<g>
</g>
</svg>
